<?xml version="1.0" encoding="UTF-8" standalone="no"?>
<!DOCTYPE svg PUBLIC "-//W3C//DTD SVG 1.1//EN" "http://www.w3.org/Graphics/SVG/1.1/DTD/svg11.dtd">
<!-- Created with Vectornator (http://vectornator.io/) -->
<svg height="100%" stroke-miterlimit="10" style="fill-rule:nonzero;clip-rule:evenodd;stroke-linecap:round;stroke-linejoin:round;" version="1.1" viewBox="0 0 512 512" width="100%" xml:space="preserve" xmlns="http://www.w3.org/2000/svg" xmlns:vectornator="http://vectornator.io" xmlns:xlink="http://www.w3.org/1999/xlink">
<defs/>
<clipPath id="ArtboardFrame">
<rect height="512" width="512" x="0" y="0"/>
</clipPath>
<g clip-path="url(#ArtboardFrame)" id="Untitled" vectornator:layerName="Untitled">
<path d="M-0.775941 256L-0.775941 512L255.224 512L511.224 512L511.224 256L511.224-7.62939e-06L255.224-7.62939e-06L-0.775941-7.62939e-06L-0.775941 256ZM211.186 182.071C220.286 184.571 225.986 187.471 234.186 193.671C245.986 202.471 254.886 215.071 271.286 245.671C277.486 257.171 284.186 269.071 286.086 272.071C291.286 279.871 300.886 289.371 307.286 292.671C312.486 295.371 313.486 295.571 324.786 295.571C335.786 295.571 337.186 295.371 341.786 292.871C355.886 285.371 364.186 267.971 361.586 251.071C359.286 236.671 350.986 224.671 339.486 219.271C334.286 216.771 332.686 216.571 321.786 216.571C308.186 216.571 304.186 217.871 296.086 224.971C285.886 233.971 278.586 234.371 271.086 226.371C267.686 222.771 266.286 219.071 266.286 213.371C266.286 206.971 268.586 202.871 276.286 195.771C288.986 184.071 301.386 179.671 321.286 179.671C340.886 179.671 354.186 184.371 369.586 196.871C381.586 206.571 392.186 223.371 395.886 238.571C398.286 248.071 398.286 267.271 395.986 276.071C390.586 296.871 374.786 315.671 354.786 325.171C342.986 330.871 335.686 332.471 322.286 332.471C302.486 332.471 289.086 327.371 275.386 314.471C262.786 302.671 253.986 289.471 240.086 261.671C223.986 229.471 211.486 217.371 193.286 216.271C171.986 215.071 155.686 228.771 152.186 250.871C149.186 269.071 156.986 284.371 173.086 292.271C179.586 295.471 179.986 295.571 193.286 295.571C208.486 295.571 209.486 295.271 220.786 286.771C227.586 281.771 231.586 280.471 235.886 282.071C245.186 285.671 250.086 298.371 245.686 307.671C243.686 311.771 230.886 321.771 221.386 326.471C212.086 331.171 205.486 332.471 192.286 332.471C170.386 332.571 154.886 326.471 139.486 311.671C129.186 301.871 120.386 287.171 117.386 274.871C115.586 267.271 114.986 253.171 116.186 244.971C120.686 212.971 147.386 185.971 180.486 180.171C187.986 178.771 202.586 179.771 211.186 182.071Z" fill="#000000" fill-rule="nonzero" opacity="1" stroke="none"/>
</g>
</svg>
